<svg xmlns="http://www.w3.org/2000/svg" xmlns:xlink="http://www.w3.org/1999/xlink" width="2000" zoomAndPan="magnify" viewBox="0 0 1500 1499.999933" height="2000" preserveAspectRatio="xMidYMid meet" version="1.0"><defs><g/><clipPath id="b76e0c8412"><path d="M 45 0.160156 L 237 0.160156 L 237 277 L 45 277 Z M 45 0.160156 " clip-rule="nonzero"/></clipPath><clipPath id="5a389aed97"><rect x="0" width="1004" y="0" height="646"/></clipPath><clipPath id="40e40354ce"><rect x="0" width="160" y="0" height="31"/></clipPath></defs><rect x="-150" width="1800" fill="#ffffff" y="-149.999993" height="1799.99992" fill-opacity="1"/><rect x="-150" width="1800" fill="#faf9f6" y="-149.999993" height="1799.99992" fill-opacity="1"/><g transform="matrix(1, 0, 0, 1, 248, 458)"><g clip-path="url(#5a389aed97)"><g clip-path="url(#b76e0c8412)"><g fill="#000000" fill-opacity="1"><g transform="translate(2.640637, 252.288768)"><g><path d="M 233.671875 -199.078125 C 233.671875 -197.359375 232.320312 -195.394531 229.625 -193.1875 C 226.925781 -190.976562 224.226562 -189.015625 221.53125 -187.296875 C 218.832031 -185.585938 217.484375 -184.734375 217.484375 -184.734375 L 212.328125 -180.6875 L 202.765625 -179.203125 C 197.359375 -178.472656 191.894531 -176.695312 186.375 -173.875 C 180.863281 -171.050781 176.265625 -167.859375 172.578125 -164.296875 C 168.898438 -160.742188 167.0625 -157.375 167.0625 -154.1875 C 167.0625 -151.726562 167.921875 -147.492188 169.640625 -141.484375 C 171.359375 -135.472656 174.179688 -128.175781 178.109375 -119.59375 C 180.554688 -114.445312 182.332031 -109.050781 183.4375 -103.40625 C 184.539062 -97.757812 185.335938 -92.972656 185.828125 -89.046875 C 186.316406 -85.128906 186.5625 -83.171875 186.5625 -83.171875 L 203.5 -35.6875 L 203.859375 -24.28125 L 207.90625 -10.296875 C 208.15625 -9.804688 208.28125 -8.953125 208.28125 -7.734375 C 208.28125 -4.535156 206.742188 -1.710938 203.671875 0.734375 C 200.609375 3.191406 197.359375 4.421875 193.921875 4.421875 C 192.210938 4.421875 190.003906 2.765625 187.296875 -0.546875 C 184.597656 -3.859375 182.640625 -6.742188 181.421875 -9.203125 L 177 -20.609375 L 172.953125 -44.890625 L 168.90625 -54.828125 L 165.953125 -81.328125 L 161.546875 -103.765625 L 145.359375 -132.109375 L 139.828125 -149.40625 L 129.15625 -152.71875 L 84.640625 -135.046875 L 75.8125 -126.59375 L 76.546875 -105.609375 L 73.96875 -87.578125 L 74.328125 -64.390625 L 71.75 -52.25 L 73.234375 -43.421875 L 70.28125 -26.125 L 69.546875 5.890625 C 69.304688 9.816406 68.507812 13.800781 67.15625 17.84375 C 65.8125 21.894531 63.539062 23.921875 60.34375 23.921875 C 57.15625 23.921875 53.472656 22.628906 49.296875 20.046875 C 45.128906 17.472656 43.046875 14.101562 43.046875 9.9375 C 43.046875 9.6875 43.046875 9.5625 43.046875 9.5625 C 43.046875 9.5625 43.046875 9.441406 43.046875 9.203125 L 45.625 -24.65625 L 51.890625 -58.140625 L 52.625 -99.71875 L 52.25 -109.65625 L 57.03125 -132.84375 L 58.875 -165.953125 L 62.5625 -178.84375 L 63.65625 -224.46875 L 62.5625 -238.453125 C 62.5625 -238.941406 62.5625 -239.25 62.5625 -239.375 C 62.5625 -239.5 62.5625 -239.679688 62.5625 -239.921875 C 62.5625 -242.867188 63.539062 -245.566406 65.5 -248.015625 C 67.457031 -250.472656 70.894531 -251.703125 75.8125 -251.703125 L 79.859375 -245.453125 L 86.46875 -242.5 L 85 -200.1875 L 80.59375 -181.421875 C 80.59375 -181.421875 80.957031 -180.375 81.6875 -178.28125 C 82.425781 -176.195312 83.46875 -174.050781 84.8125 -171.84375 C 86.164062 -169.632812 87.457031 -168.039062 88.6875 -167.0625 C 88.925781 -166.820312 89.414062 -166.703125 90.15625 -166.703125 C 92.113281 -166.703125 94.566406 -167.617188 97.515625 -169.453125 C 100.460938 -171.296875 101.9375 -172.21875 101.9375 -172.21875 L 115.546875 -174.421875 L 123.28125 -178.109375 L 144.984375 -183.25 L 212.6875 -214.171875 C 214.164062 -214.898438 215.765625 -215.265625 217.484375 -215.265625 C 221.648438 -215.265625 225.390625 -213.609375 228.703125 -210.296875 C 232.015625 -206.984375 233.671875 -203.242188 233.671875 -199.078125 Z M 233.671875 -199.078125 "/></g></g></g></g><g fill="#000000" fill-opacity="1"><g transform="translate(256.171284, 252.288768)"><g><path d="M 164.859375 -103.40625 C 164.859375 -96.78125 162.710938 -90.890625 158.421875 -85.734375 C 154.128906 -80.585938 148.789062 -78.015625 142.40625 -78.015625 C 132.351562 -78.015625 121.804688 -79.238281 110.765625 -81.6875 C 99.722656 -84.144531 90.273438 -85.375 82.421875 -85.375 C 74.328125 -85.375 68.378906 -83.835938 64.578125 -80.765625 C 60.773438 -77.703125 58.875 -74.085938 58.875 -69.921875 C 58.875 -66.734375 59.976562 -63.664062 62.1875 -60.71875 C 65.863281 -55.070312 70.769531 -49.914062 76.90625 -45.25 C 83.039062 -40.59375 88.5625 -36.851562 93.46875 -34.03125 C 98.375 -31.21875 100.828125 -29.8125 100.828125 -29.8125 L 112.96875 -26.125 L 122.53125 -25.390625 L 127.328125 -20.609375 L 133.578125 -15.453125 L 134.3125 -3.3125 L 130.640625 0.375 L 127.6875 5.15625 C 127.6875 5.15625 126.828125 5.519531 125.109375 6.25 C 123.390625 6.988281 121.921875 7.359375 120.703125 7.359375 C 115.304688 7.359375 109.476562 6.066406 103.21875 3.484375 C 96.96875 0.910156 91.691406 -1.597656 87.390625 -4.046875 C 83.097656 -6.503906 80.953125 -7.734375 80.953125 -7.734375 L 68.078125 -15.453125 L 65.140625 -21.71875 L 44.53125 -47.109375 C 44.53125 -47.109375 43.671875 -49.066406 41.953125 -52.984375 C 40.234375 -56.910156 39.375 -60.46875 39.375 -63.65625 C 39.375 -67.09375 39.863281 -70.894531 40.84375 -75.0625 C 41.820312 -79.238281 42.3125 -81.328125 42.3125 -81.328125 L 43.046875 -103.40625 C 43.046875 -104.875 43.414062 -107.445312 44.15625 -111.125 C 44.894531 -114.8125 45.628906 -118.1875 46.359375 -121.25 C 47.097656 -124.3125 47.46875 -125.84375 47.46875 -125.84375 C 47.46875 -125.84375 49.0625 -127.5625 52.25 -131 C 55.4375 -134.4375 59.238281 -138.363281 63.65625 -142.78125 C 68.070312 -147.195312 72.125 -150.753906 75.8125 -153.453125 C 79.976562 -156.148438 84.023438 -158.234375 87.953125 -159.703125 C 91.878906 -161.171875 93.84375 -161.90625 93.84375 -161.90625 L 101.9375 -165.59375 L 120.703125 -167.4375 C 134.679688 -167.4375 145.535156 -161.671875 153.265625 -150.140625 C 160.992188 -138.609375 164.859375 -123.03125 164.859375 -103.40625 Z M 144.25 -122.53125 C 144.25 -127.9375 142.285156 -132.351562 138.359375 -135.78125 C 134.429688 -139.21875 129.894531 -141.796875 124.75 -143.515625 C 123.519531 -144.003906 122.046875 -144.367188 120.328125 -144.609375 C 118.609375 -144.859375 117.015625 -144.984375 115.546875 -144.984375 C 114.078125 -144.984375 112.789062 -144.921875 111.6875 -144.796875 C 110.582031 -144.679688 110.03125 -144.625 110.03125 -144.625 L 101.203125 -138.359375 L 90.15625 -137.625 C 90.15625 -137.625 88.863281 -136.640625 86.28125 -134.671875 C 83.707031 -132.710938 81.132812 -130.382812 78.5625 -127.6875 C 75.988281 -124.988281 74.703125 -122.414062 74.703125 -119.96875 C 74.703125 -115.550781 77.15625 -111.5 82.0625 -107.8125 C 83.289062 -106.832031 84.640625 -106.34375 86.109375 -106.34375 C 87.828125 -106.34375 89.546875 -106.710938 91.265625 -107.453125 C 92.984375 -108.191406 94.820312 -108.5625 96.78125 -108.5625 C 98.007812 -108.5625 98.988281 -108.4375 99.71875 -108.1875 L 110.03125 -104.875 L 119.96875 -105.984375 C 130.019531 -107.453125 136.578125 -109.164062 139.640625 -111.125 C 142.710938 -113.09375 144.25 -116.894531 144.25 -122.53125 Z M 144.25 -122.53125 "/></g></g></g><g fill="#000000" fill-opacity="1"><g transform="translate(455.242525, 252.288768)"><g><path d="M 81.6875 -151.609375 L 78.75 -132.46875 L 80.953125 -90.15625 L 79.109375 -81.6875 C 79.109375 -81.6875 78.492188 -79.109375 77.265625 -73.953125 C 76.046875 -68.804688 75.4375 -64.023438 75.4375 -59.609375 C 75.4375 -56.421875 75.679688 -52.925781 76.171875 -49.125 C 76.660156 -45.320312 77.210938 -42.007812 77.828125 -39.1875 C 78.441406 -36.363281 78.75 -34.953125 78.75 -34.953125 L 76.90625 -27.234375 C 75.925781 -23.554688 74.269531 -20.304688 71.9375 -17.484375 C 69.601562 -14.660156 66.96875 -13.25 64.03125 -13.25 C 60.351562 -13.25 57.898438 -14.472656 56.671875 -16.921875 C 55.441406 -19.378906 54.828125 -23.0625 54.828125 -27.96875 C 54.828125 -29.195312 55.191406 -31.28125 55.921875 -34.21875 C 56.660156 -37.164062 57.03125 -39.988281 57.03125 -42.6875 L 55.9375 -66.609375 C 55.9375 -66.609375 55.75 -68.628906 55.375 -72.671875 C 55.007812 -76.722656 54.640625 -81.9375 54.265625 -88.3125 C 53.898438 -94.695312 53.71875 -101.195312 53.71875 -107.8125 C 53.71875 -113.945312 53.960938 -119.773438 54.453125 -125.296875 C 54.953125 -130.816406 55.8125 -135.296875 57.03125 -138.734375 L 60.34375 -148.671875 L 64.03125 -159.34375 C 64.769531 -161.300781 66.117188 -163.078125 68.078125 -164.671875 C 70.035156 -166.265625 71.875 -167.0625 73.59375 -167.0625 C 76.539062 -167.0625 78.320312 -165.46875 78.9375 -162.28125 C 79.550781 -159.09375 79.859375 -157.5 79.859375 -157.5 Z M 78.75 -236.609375 C 78.75 -229.742188 77.09375 -223.976562 73.78125 -219.3125 C 70.46875 -214.65625 66.972656 -212.203125 63.296875 -211.953125 C 63.046875 -211.953125 62.796875 -211.953125 62.546875 -211.953125 C 62.304688 -211.953125 61.941406 -211.953125 61.453125 -211.953125 C 59.003906 -211.953125 56.734375 -212.257812 54.640625 -212.875 C 52.554688 -213.488281 51.144531 -214.53125 50.40625 -216 L 46 -223.359375 L 47.84375 -233.671875 L 56.671875 -242.5 L 61.453125 -249.859375 L 69.1875 -249.125 C 72.375 -248.632812 74.765625 -247.46875 76.359375 -245.625 C 77.953125 -243.789062 78.75 -240.785156 78.75 -236.609375 Z M 78.75 -236.609375 "/></g></g></g><g fill="#000000" fill-opacity="1"><g transform="translate(582.92777, 252.288768)"><g><path d="M 179.9375 -89.046875 L 178.84375 -66.234375 L 177.734375 -48.9375 C 177.734375 -48.695312 177.734375 -48.390625 177.734375 -48.015625 C 177.734375 -47.648438 177.734375 -47.222656 177.734375 -46.734375 C 177.734375 -43.546875 177.914062 -39.863281 178.28125 -35.6875 C 178.65625 -31.519531 178.84375 -29.4375 178.84375 -29.4375 L 172.21875 -23.546875 L 167.4375 -18.03125 C 167.4375 -18.03125 166.269531 -18.148438 163.9375 -18.390625 C 161.601562 -18.640625 159.269531 -19.378906 156.9375 -20.609375 C 154.613281 -21.835938 153.453125 -23.675781 153.453125 -26.125 C 153.453125 -26.125 153.453125 -26.1875 153.453125 -26.3125 C 153.453125 -26.4375 153.453125 -26.5 153.453125 -26.5 L 154.1875 -37.90625 L 152.34375 -49.3125 L 154.546875 -69.1875 L 154.546875 -100.09375 C 154.546875 -101.070312 154.117188 -103.15625 153.265625 -106.34375 C 152.410156 -109.53125 151 -113.023438 149.03125 -116.828125 C 147.070312 -120.628906 144.3125 -123.878906 140.75 -126.578125 C 137.195312 -129.285156 132.84375 -130.640625 127.6875 -130.640625 C 123.03125 -130.640625 118.367188 -129.59375 113.703125 -127.5 C 109.046875 -125.414062 105.117188 -123.269531 101.921875 -121.0625 C 98.734375 -118.851562 97.140625 -117.75 97.140625 -117.75 L 91.265625 -110.390625 L 78.015625 -100.09375 C 78.015625 -100.09375 77.03125 -98.128906 75.0625 -94.203125 C 73.101562 -90.273438 71.144531 -86.597656 69.1875 -83.171875 C 67.46875 -80.222656 66.300781 -76.109375 65.6875 -70.828125 C 65.070312 -65.554688 64.765625 -60.835938 64.765625 -56.671875 C 64.765625 -50.535156 65.128906 -46.117188 65.859375 -43.421875 C 66.597656 -40.722656 67.335938 -38.207031 68.078125 -35.875 C 68.816406 -33.539062 69.1875 -29.800781 69.1875 -24.65625 C 69.1875 -20.726562 68.203125 -16.1875 66.234375 -11.03125 C 64.273438 -5.882812 60.84375 -3.3125 55.9375 -3.3125 C 53.238281 -3.3125 50.660156 -4.84375 48.203125 -7.90625 C 45.753906 -10.976562 44.53125 -12.515625 44.53125 -12.515625 L 46 -29.4375 L 44.53125 -42.3125 L 47.109375 -62.5625 L 45.265625 -126.21875 L 48.203125 -139.828125 L 47.46875 -151.609375 L 50.78125 -155.65625 L 53.71875 -161.546875 C 53.71875 -161.546875 55.003906 -161.359375 57.578125 -160.984375 C 60.160156 -160.617188 62.800781 -160.003906 65.5 -159.140625 C 68.195312 -158.285156 69.425781 -157.125 69.1875 -155.65625 L 68.078125 -141.3125 C 68.078125 -141.0625 68.078125 -140.8125 68.078125 -140.5625 C 68.078125 -140.320312 68.078125 -140.078125 68.078125 -139.828125 C 68.078125 -138.359375 68.628906 -136.945312 69.734375 -135.59375 C 70.835938 -134.25 72.984375 -133.578125 76.171875 -133.578125 C 78.128906 -133.578125 80.394531 -134.492188 82.96875 -136.328125 C 85.550781 -138.171875 87.757812 -139.953125 89.59375 -141.671875 C 91.4375 -143.390625 92.359375 -144.25 92.359375 -144.25 L 101.203125 -148.296875 C 101.203125 -148.296875 102.425781 -149.15625 104.875 -150.875 C 107.332031 -152.59375 110.707031 -154.25 115 -155.84375 C 119.289062 -157.4375 124.007812 -158.234375 129.15625 -158.234375 C 135.539062 -158.234375 141.675781 -156.332031 147.5625 -152.53125 C 153.445312 -148.726562 159.457031 -142.535156 165.59375 -133.953125 C 173.445312 -123.398438 177.375 -115.671875 177.375 -110.765625 L 177.375 -102.296875 Z M 179.9375 -89.046875 "/></g></g></g><g fill="#000000" fill-opacity="1"><g transform="translate(802.237246, 252.288768)"><g><path d="M 164.859375 -103.40625 C 164.859375 -96.78125 162.710938 -90.890625 158.421875 -85.734375 C 154.128906 -80.585938 148.789062 -78.015625 142.40625 -78.015625 C 132.351562 -78.015625 121.804688 -79.238281 110.765625 -81.6875 C 99.722656 -84.144531 90.273438 -85.375 82.421875 -85.375 C 74.328125 -85.375 68.378906 -83.835938 64.578125 -80.765625 C 60.773438 -77.703125 58.875 -74.085938 58.875 -69.921875 C 58.875 -66.734375 59.976562 -63.664062 62.1875 -60.71875 C 65.863281 -55.070312 70.769531 -49.914062 76.90625 -45.25 C 83.039062 -40.59375 88.5625 -36.851562 93.46875 -34.03125 C 98.375 -31.21875 100.828125 -29.8125 100.828125 -29.8125 L 112.96875 -26.125 L 122.53125 -25.390625 L 127.328125 -20.609375 L 133.578125 -15.453125 L 134.3125 -3.3125 L 130.640625 0.375 L 127.6875 5.15625 C 127.6875 5.15625 126.828125 5.519531 125.109375 6.25 C 123.390625 6.988281 121.921875 7.359375 120.703125 7.359375 C 115.304688 7.359375 109.476562 6.066406 103.21875 3.484375 C 96.96875 0.910156 91.691406 -1.597656 87.390625 -4.046875 C 83.097656 -6.503906 80.953125 -7.734375 80.953125 -7.734375 L 68.078125 -15.453125 L 65.140625 -21.71875 L 44.53125 -47.109375 C 44.53125 -47.109375 43.671875 -49.066406 41.953125 -52.984375 C 40.234375 -56.910156 39.375 -60.46875 39.375 -63.65625 C 39.375 -67.09375 39.863281 -70.894531 40.84375 -75.0625 C 41.820312 -79.238281 42.3125 -81.328125 42.3125 -81.328125 L 43.046875 -103.40625 C 43.046875 -104.875 43.414062 -107.445312 44.15625 -111.125 C 44.894531 -114.8125 45.628906 -118.1875 46.359375 -121.25 C 47.097656 -124.3125 47.46875 -125.84375 47.46875 -125.84375 C 47.46875 -125.84375 49.0625 -127.5625 52.25 -131 C 55.4375 -134.4375 59.238281 -138.363281 63.65625 -142.78125 C 68.070312 -147.195312 72.125 -150.753906 75.8125 -153.453125 C 79.976562 -156.148438 84.023438 -158.234375 87.953125 -159.703125 C 91.878906 -161.171875 93.84375 -161.90625 93.84375 -161.90625 L 101.9375 -165.59375 L 120.703125 -167.4375 C 134.679688 -167.4375 145.535156 -161.671875 153.265625 -150.140625 C 160.992188 -138.609375 164.859375 -123.03125 164.859375 -103.40625 Z M 144.25 -122.53125 C 144.25 -127.9375 142.285156 -132.351562 138.359375 -135.78125 C 134.429688 -139.21875 129.894531 -141.796875 124.75 -143.515625 C 123.519531 -144.003906 122.046875 -144.367188 120.328125 -144.609375 C 118.609375 -144.859375 117.015625 -144.984375 115.546875 -144.984375 C 114.078125 -144.984375 112.789062 -144.921875 111.6875 -144.796875 C 110.582031 -144.679688 110.03125 -144.625 110.03125 -144.625 L 101.203125 -138.359375 L 90.15625 -137.625 C 90.15625 -137.625 88.863281 -136.640625 86.28125 -134.671875 C 83.707031 -132.710938 81.132812 -130.382812 78.5625 -127.6875 C 75.988281 -124.988281 74.703125 -122.414062 74.703125 -119.96875 C 74.703125 -115.550781 77.15625 -111.5 82.0625 -107.8125 C 83.289062 -106.832031 84.640625 -106.34375 86.109375 -106.34375 C 87.828125 -106.34375 89.546875 -106.710938 91.265625 -107.453125 C 92.984375 -108.191406 94.820312 -108.5625 96.78125 -108.5625 C 98.007812 -108.5625 98.988281 -108.4375 99.71875 -108.1875 L 110.03125 -104.875 L 119.96875 -105.984375 C 130.019531 -107.453125 136.578125 -109.164062 139.640625 -111.125 C 142.710938 -113.09375 144.25 -116.894531 144.25 -122.53125 Z M 144.25 -122.53125 "/></g></g></g><g fill="#000000" fill-opacity="1"><g transform="translate(250.28124, 519.288745)"><g><path d="M 228.515625 -29.078125 C 228.515625 -26.867188 227.410156 -23.984375 225.203125 -20.421875 C 222.992188 -16.867188 220.414062 -13.679688 217.46875 -10.859375 C 214.53125 -8.035156 212.082031 -6.625 210.125 -6.625 C 208.40625 -6.625 206.316406 -7.664062 203.859375 -9.75 C 201.410156 -11.832031 200.1875 -12.875 200.1875 -12.875 L 196.875 -22.8125 L 197.96875 -37.53125 L 193.921875 -48.203125 C 193.921875 -48.203125 193.367188 -49.550781 192.265625 -52.25 C 191.160156 -54.945312 189.929688 -58.070312 188.578125 -61.625 C 187.234375 -65.1875 186.316406 -68.441406 185.828125 -71.390625 C 183.128906 -83.648438 179.816406 -93.335938 175.890625 -100.453125 C 171.972656 -107.566406 167.925781 -111.125 163.75 -111.125 C 161.300781 -111.125 157.375 -110.507812 151.96875 -109.28125 C 146.570312 -108.0625 140.625 -106.835938 134.125 -105.609375 C 127.625 -104.378906 121.304688 -103.765625 115.171875 -103.765625 C 107.566406 -103.765625 102.046875 -102.96875 98.609375 -101.375 C 95.179688 -99.78125 92.851562 -97.269531 91.625 -93.84375 L 86.109375 -81.6875 L 84.265625 -71.75 L 79.484375 -63.65625 L 76.546875 -53.71875 L 66.609375 -41.578125 L 57.40625 -17.296875 C 56.425781 -14.347656 54.398438 -11.953125 51.328125 -10.109375 C 48.265625 -8.273438 46 -7.359375 44.53125 -7.359375 C 42.070312 -7.359375 39.25 -8.953125 36.0625 -12.140625 C 32.875 -15.328125 31.28125 -18.765625 31.28125 -22.453125 C 31.28125 -26.128906 32.503906 -30.539062 34.953125 -35.6875 C 37.410156 -40.84375 39.800781 -45.320312 42.125 -49.125 C 44.457031 -52.925781 45.625 -54.828125 45.625 -54.828125 C 45.625 -54.828125 45.929688 -56.175781 46.546875 -58.875 C 47.160156 -61.570312 48.019531 -64.820312 49.125 -68.625 C 50.226562 -72.425781 51.269531 -75.675781 52.25 -78.375 C 53.726562 -81.8125 55.507812 -85.429688 57.59375 -89.234375 C 59.675781 -93.035156 61.515625 -96.285156 63.109375 -98.984375 C 64.703125 -101.679688 65.5 -103.03125 65.5 -103.03125 L 83.171875 -139.09375 L 93.84375 -170.015625 L 99.71875 -179.9375 L 112.96875 -210.859375 C 114.9375 -215.273438 116.71875 -219.75 118.3125 -224.28125 C 119.90625 -228.820312 122.050781 -232.625 124.75 -235.6875 C 127.445312 -238.757812 131.125 -240.296875 135.78125 -240.296875 C 141.175781 -240.296875 145.285156 -238.453125 148.109375 -234.765625 C 150.929688 -231.085938 154.304688 -224.585938 158.234375 -215.265625 L 184.359375 -151.984375 L 186.5625 -138.734375 L 205.328125 -96.40625 C 205.328125 -96.40625 206.367188 -95.175781 208.453125 -92.71875 C 210.546875 -90.269531 211.710938 -88.066406 211.953125 -86.109375 C 213.921875 -79.484375 215.210938 -73.472656 215.828125 -68.078125 C 216.441406 -62.679688 217.726562 -57.773438 219.6875 -53.359375 C 221.894531 -47.960938 223.914062 -43.113281 225.75 -38.8125 C 227.59375 -34.519531 228.515625 -31.273438 228.515625 -29.078125 Z M 161.546875 -146.09375 C 161.546875 -147.8125 161.175781 -149.894531 160.4375 -152.34375 C 159.707031 -154.800781 158.972656 -157.070312 158.234375 -159.15625 C 157.492188 -161.238281 157.125 -162.28125 157.125 -162.28125 L 153.078125 -168.53125 L 149.40625 -181.78125 C 149.40625 -181.78125 149.21875 -182.578125 148.84375 -184.171875 C 148.476562 -185.765625 147.5 -187.359375 145.90625 -188.953125 C 144.3125 -190.554688 141.675781 -191.359375 138 -191.359375 C 135.789062 -191.359375 132.90625 -189.394531 129.34375 -185.46875 C 125.789062 -181.539062 122.539062 -176.753906 119.59375 -171.109375 C 116.644531 -165.472656 114.679688 -159.832031 113.703125 -154.1875 C 113.460938 -152.957031 113.28125 -151.789062 113.15625 -150.6875 C 113.03125 -149.582031 112.96875 -148.539062 112.96875 -147.5625 C 112.96875 -142.894531 113.945312 -139.394531 115.90625 -137.0625 C 117.875 -134.738281 120.082031 -133.578125 122.53125 -133.578125 C 122.53125 -133.578125 122.59375 -133.578125 122.71875 -133.578125 C 122.84375 -133.578125 123.03125 -133.578125 123.28125 -133.578125 L 150.875 -134.6875 C 152.101562 -134.6875 154.1875 -135.726562 157.125 -137.8125 C 160.070312 -139.894531 161.546875 -142.65625 161.546875 -146.09375 Z M 161.546875 -146.09375 "/></g></g></g><g fill="#000000" fill-opacity="1"><g transform="translate(504.547836, 519.288745)"><g><path d="M 213.4375 -118.484375 C 210.738281 -101.554688 206.8125 -86.160156 201.65625 -72.296875 C 196.5 -58.441406 188.707031 -46.851562 178.28125 -37.53125 C 167.863281 -28.207031 152.960938 -21.832031 133.578125 -18.40625 C 132.347656 -18.15625 130.566406 -17.722656 128.234375 -17.109375 C 125.910156 -16.492188 124.75 -16.1875 124.75 -16.1875 L 111.875 -19.875 L 97.890625 -20.609375 L 84.265625 -28.703125 L 74.703125 -31.640625 C 74.703125 -31.640625 73.535156 -32.742188 71.203125 -34.953125 C 68.867188 -37.160156 66.109375 -40.472656 62.921875 -44.890625 C 62.429688 -45.628906 61.632812 -46.914062 60.53125 -48.75 C 59.425781 -50.59375 58.441406 -52.375 57.578125 -54.09375 C 56.722656 -55.8125 56.296875 -56.671875 56.296875 -56.671875 L 48.9375 -62.1875 C 48.9375 -62.1875 47.953125 -64.148438 45.984375 -68.078125 C 44.023438 -72.003906 42.066406 -77.890625 40.109375 -85.734375 C 38.148438 -93.585938 37.171875 -103.15625 37.171875 -114.4375 C 37.171875 -131.613281 38.882812 -145.84375 42.3125 -157.125 C 45.75 -168.414062 52.003906 -177.25 61.078125 -183.625 L 94.578125 -207.171875 L 107.8125 -216.375 L 114.4375 -222.625 L 140.5625 -229.25 L 165.21875 -228.15625 L 179.203125 -229.984375 C 180.679688 -230.234375 182.03125 -230.414062 183.25 -230.53125 C 184.476562 -230.65625 185.707031 -230.71875 186.9375 -230.71875 C 195.519531 -230.71875 202.019531 -228.507812 206.4375 -224.09375 C 210.851562 -219.6875 213.0625 -214.046875 213.0625 -207.171875 C 213.0625 -203.984375 212.691406 -201.097656 211.953125 -198.515625 C 211.222656 -195.941406 209.507812 -194.65625 206.8125 -194.65625 C 205.09375 -194.65625 202.390625 -195.695312 198.703125 -197.78125 C 195.023438 -199.875 190.796875 -201.898438 186.015625 -203.859375 C 181.234375 -205.828125 176.019531 -206.8125 170.375 -206.8125 C 163.507812 -206.8125 156.332031 -206.070312 148.84375 -204.59375 C 141.363281 -203.125 134.429688 -201.347656 128.046875 -199.265625 C 121.671875 -197.179688 116.519531 -195.398438 112.59375 -193.921875 C 108.675781 -192.453125 106.71875 -191.71875 106.71875 -191.71875 L 101.9375 -186.203125 L 85 -175.890625 L 66.609375 -157.125 C 63.421875 -153.9375 61.332031 -149.335938 60.34375 -143.328125 C 59.363281 -137.316406 58.875 -129.285156 58.875 -119.234375 C 58.875 -107.941406 60.222656 -98.367188 62.921875 -90.515625 C 65.617188 -82.671875 68.6875 -76.296875 72.125 -71.390625 C 75.5625 -66.484375 78.628906 -62.925781 81.328125 -60.71875 C 84.023438 -58.507812 85.375 -57.40625 85.375 -57.40625 L 100.09375 -52.25 L 110.765625 -45.625 C 110.765625 -45.625 112.601562 -45.070312 116.28125 -43.96875 C 119.957031 -42.863281 123.394531 -42.3125 126.59375 -42.3125 C 138.113281 -42.3125 147.613281 -44.210938 155.09375 -48.015625 C 162.582031 -51.816406 168.472656 -56.539062 172.765625 -62.1875 C 177.054688 -67.832031 180.179688 -73.414062 182.140625 -78.9375 C 184.109375 -84.457031 185.398438 -89.117188 186.015625 -92.921875 C 186.628906 -96.722656 186.9375 -98.625 186.9375 -98.625 C 186.9375 -98.625 187.300781 -99.539062 188.03125 -101.375 C 188.769531 -103.21875 189.140625 -105.117188 189.140625 -107.078125 C 189.140625 -108.554688 188.894531 -109.660156 188.40625 -110.390625 C 187.425781 -112.109375 185.953125 -113.148438 183.984375 -113.515625 C 182.023438 -113.890625 180.1875 -114.078125 178.46875 -114.078125 C 177.976562 -114.078125 177.488281 -114.078125 177 -114.078125 C 176.507812 -114.078125 176.019531 -114.078125 175.53125 -114.078125 L 148.296875 -113.34375 C 145.597656 -113.34375 143.207031 -114.382812 141.125 -116.46875 C 139.039062 -118.550781 138 -120.695312 138 -122.90625 C 138 -126.832031 139.160156 -130.082031 141.484375 -132.65625 C 143.816406 -135.226562 145.84375 -136.640625 147.5625 -136.890625 L 161.546875 -139.09375 L 167.4375 -141.3125 C 167.4375 -141.3125 169.210938 -141.003906 172.765625 -140.390625 C 176.328125 -139.773438 179.945312 -139.46875 183.625 -139.46875 C 186.320312 -139.46875 189.570312 -139.523438 193.375 -139.640625 C 197.175781 -139.765625 199.078125 -139.828125 199.078125 -139.828125 L 205.703125 -135.046875 L 211.21875 -131.734375 C 211.21875 -131.734375 211.644531 -130.503906 212.5 -128.046875 C 213.363281 -125.597656 213.796875 -123.148438 213.796875 -120.703125 C 213.796875 -120.453125 213.734375 -120.144531 213.609375 -119.78125 C 213.492188 -119.414062 213.4375 -118.984375 213.4375 -118.484375 Z M 213.4375 -118.484375 "/></g></g></g></g></g><g transform="matrix(1, 0, 0, 1, 671, 1078)"><g clip-path="url(#40e40354ce)"><g fill="#000000" fill-opacity="1"><g transform="translate(2.15732, 24.768948)"><g><path d="M 16.6875 0 L 12.140625 0 L 5.328125 -12.578125 C 5.410156 -11.066406 5.453125 -9.367188 5.453125 -7.484375 L 5.453125 0 L 2.140625 0 L 2.140625 -16.5625 L 6.53125 -16.5625 L 13.484375 -3.75 C 13.410156 -5.226562 13.375 -6.960938 13.375 -8.953125 L 13.375 -16.5625 L 16.65625 -16.5625 Z M 16.6875 0 "/></g></g></g><g fill="#000000" fill-opacity="1"><g transform="translate(20.87706, 24.768948)"><g><path d="M 5.453125 0 L 2.140625 0 L 2.140625 -16.5625 L 5.453125 -16.5625 Z M 5.453125 0 "/></g></g></g><g fill="#000000" fill-opacity="1"><g transform="translate(28.364929, 24.768948)"><g><path d="M 9.234375 -16.890625 C 11.398438 -16.890625 13.085938 -16.363281 14.296875 -15.3125 C 15.515625 -14.269531 16.210938 -12.894531 16.390625 -11.1875 L 16.421875 -10.9375 L 13.109375 -10.9375 L 13.0625 -11.1875 C 12.625 -13.34375 11.332031 -14.421875 9.1875 -14.421875 C 7.84375 -14.421875 6.765625 -13.878906 5.953125 -12.796875 C 5.140625 -11.722656 4.734375 -10.25 4.734375 -8.375 C 4.734375 -6.375 5.140625 -4.832031 5.953125 -3.75 C 6.765625 -2.675781 7.828125 -2.140625 9.140625 -2.140625 C 10.203125 -2.140625 11.050781 -2.429688 11.6875 -3.015625 C 12.320312 -3.609375 12.753906 -4.4375 12.984375 -5.5 L 13.03125 -5.734375 L 16.3125 -5.734375 L 16.296875 -5.5 C 16.117188 -3.707031 15.378906 -2.285156 14.078125 -1.234375 C 12.785156 -0.179688 11.09375 0.34375 9 0.34375 C 6.664062 0.34375 4.785156 -0.421875 3.359375 -1.953125 C 1.929688 -3.492188 1.21875 -5.570312 1.21875 -8.1875 C 1.21875 -10.84375 1.96875 -12.957031 3.46875 -14.53125 C 4.976562 -16.101562 6.898438 -16.890625 9.234375 -16.890625 Z M 9.234375 -16.890625 "/></g></g></g><g fill="#000000" fill-opacity="1"><g transform="translate(46.076673, 24.768948)"><g><path d="M 9.40625 -16.890625 C 11.9375 -16.890625 13.929688 -16.109375 15.390625 -14.546875 C 16.859375 -12.992188 17.59375 -10.90625 17.59375 -8.28125 C 17.59375 -5.675781 16.859375 -3.585938 15.390625 -2.015625 C 13.929688 -0.441406 11.9375 0.34375 9.40625 0.34375 C 6.875 0.34375 4.875 -0.441406 3.40625 -2.015625 C 1.945312 -3.585938 1.21875 -5.675781 1.21875 -8.28125 C 1.21875 -10.90625 1.945312 -12.992188 3.40625 -14.546875 C 4.863281 -16.109375 6.863281 -16.890625 9.40625 -16.890625 Z M 5.9375 -3.75 C 6.78125 -2.675781 7.9375 -2.140625 9.40625 -2.140625 C 10.875 -2.140625 12.023438 -2.679688 12.859375 -3.765625 C 13.691406 -4.859375 14.109375 -6.363281 14.109375 -8.28125 C 14.109375 -10.21875 13.691406 -11.722656 12.859375 -12.796875 C 12.023438 -13.878906 10.875 -14.421875 9.40625 -14.421875 C 7.914062 -14.421875 6.753906 -13.878906 5.921875 -12.796875 C 5.097656 -11.722656 4.6875 -10.21875 4.6875 -8.28125 C 4.6875 -6.34375 5.101562 -4.832031 5.9375 -3.75 Z M 5.9375 -3.75 "/></g></g></g><g fill="#000000" fill-opacity="1"><g transform="translate(64.916393, 24.768948)"><g/></g></g><g fill="#000000" fill-opacity="1"><g transform="translate(70.052318, 24.768948)"><g><path d="M 15.859375 -9.703125 L 15.859375 -7.109375 L 13.609375 -7.109375 L 13.609375 -0.234375 C 11.734375 0.148438 9.851562 0.34375 7.96875 0.34375 C 3.5 0.34375 1.265625 -1.175781 1.265625 -4.21875 C 1.265625 -5.320312 1.617188 -6.25 2.328125 -7 C 3.035156 -7.757812 3.992188 -8.25 5.203125 -8.46875 C 4.273438 -8.707031 3.53125 -9.160156 2.96875 -9.828125 C 2.414062 -10.492188 2.140625 -11.273438 2.140625 -12.171875 C 2.140625 -13.660156 2.691406 -14.816406 3.796875 -15.640625 C 4.898438 -16.472656 6.410156 -16.890625 8.328125 -16.890625 C 9.335938 -16.890625 10.207031 -16.8125 10.9375 -16.65625 L 10.9375 -14.203125 C 10.09375 -14.347656 9.226562 -14.421875 8.34375 -14.421875 C 7.46875 -14.421875 6.796875 -14.21875 6.328125 -13.8125 C 5.867188 -13.414062 5.640625 -12.84375 5.640625 -12.09375 C 5.640625 -10.59375 6.429688 -9.800781 8.015625 -9.71875 C 8.304688 -9.707031 8.78125 -9.703125 9.4375 -9.703125 L 10.296875 -9.703125 L 10.296875 -11.921875 L 13.609375 -11.921875 L 13.609375 -9.703125 Z M 4.796875 -4.65625 C 4.796875 -3.738281 5.0625 -3.085938 5.59375 -2.703125 C 6.125 -2.328125 6.941406 -2.140625 8.046875 -2.140625 C 8.890625 -2.140625 9.640625 -2.203125 10.296875 -2.328125 L 10.296875 -7.109375 L 9.21875 -7.109375 C 8.644531 -7.109375 8.195312 -7.09375 7.875 -7.0625 C 5.820312 -6.914062 4.796875 -6.113281 4.796875 -4.65625 Z M 4.796875 -4.65625 "/></g></g></g><g fill="#000000" fill-opacity="1"><g transform="translate(86.684061, 24.768948)"><g/></g></g><g fill="#000000" fill-opacity="1"><g transform="translate(91.819986, 24.768948)"><g><path d="M 13.015625 -16.5625 L 13.015625 -6.796875 C 13.015625 -5.972656 12.988281 -5.210938 12.9375 -4.515625 C 12.84375 -3.003906 12.304688 -1.816406 11.328125 -0.953125 C 10.347656 -0.0859375 8.914062 0.34375 7.03125 0.34375 C 5.15625 0.34375 3.734375 -0.140625 2.765625 -1.109375 C 1.796875 -2.078125 1.289062 -3.4375 1.25 -5.1875 L 1.21875 -6.03125 L 4.53125 -6.03125 L 4.578125 -5.1875 C 4.691406 -3.15625 5.570312 -2.140625 7.21875 -2.140625 C 8.695312 -2.140625 9.515625 -2.992188 9.671875 -4.703125 C 9.691406 -5.054688 9.703125 -5.640625 9.703125 -6.453125 L 9.703125 -16.5625 Z M 13.015625 -16.5625 "/></g></g></g><g fill="#000000" fill-opacity="1"><g transform="translate(106.603783, 24.768948)"><g><path d="M 15.578125 -16.5625 L 15.578125 -6.75 C 15.578125 -5.957031 15.5625 -5.304688 15.53125 -4.796875 C 15.414062 -3.296875 14.800781 -2.0625 13.6875 -1.09375 C 12.582031 -0.132812 10.941406 0.34375 8.765625 0.34375 C 6.566406 0.34375 4.910156 -0.132812 3.796875 -1.09375 C 2.691406 -2.0625 2.082031 -3.296875 1.96875 -4.796875 C 1.9375 -5.304688 1.921875 -5.957031 1.921875 -6.75 L 1.921875 -16.5625 L 5.203125 -16.5625 L 5.203125 -6.40625 C 5.203125 -5.84375 5.21875 -5.441406 5.25 -5.203125 C 5.332031 -4.234375 5.664062 -3.476562 6.25 -2.9375 C 6.832031 -2.40625 7.671875 -2.140625 8.765625 -2.140625 C 9.835938 -2.140625 10.664062 -2.40625 11.25 -2.9375 C 11.832031 -3.476562 12.160156 -4.234375 12.234375 -5.203125 C 12.265625 -5.441406 12.28125 -5.84375 12.28125 -6.40625 L 12.28125 -16.5625 Z M 15.578125 -16.5625 "/></g></g></g><g fill="#000000" fill-opacity="1"><g transform="translate(123.93151, 24.768948)"><g><path d="M 15.578125 -16.5625 L 15.578125 -6.75 C 15.578125 -5.957031 15.5625 -5.304688 15.53125 -4.796875 C 15.414062 -3.296875 14.800781 -2.0625 13.6875 -1.09375 C 12.582031 -0.132812 10.941406 0.34375 8.765625 0.34375 C 6.566406 0.34375 4.910156 -0.132812 3.796875 -1.09375 C 2.691406 -2.0625 2.082031 -3.296875 1.96875 -4.796875 C 1.9375 -5.304688 1.921875 -5.957031 1.921875 -6.75 L 1.921875 -16.5625 L 5.203125 -16.5625 L 5.203125 -6.40625 C 5.203125 -5.84375 5.21875 -5.441406 5.25 -5.203125 C 5.332031 -4.234375 5.664062 -3.476562 6.25 -2.9375 C 6.832031 -2.40625 7.671875 -2.140625 8.765625 -2.140625 C 9.835938 -2.140625 10.664062 -2.40625 11.25 -2.9375 C 11.832031 -3.476562 12.160156 -4.234375 12.234375 -5.203125 C 12.265625 -5.441406 12.28125 -5.84375 12.28125 -6.40625 L 12.28125 -16.5625 Z M 15.578125 -16.5625 "/></g></g></g><g fill="#000000" fill-opacity="1"><g transform="translate(141.259236, 24.768948)"><g><path d="M 14.09375 -2.765625 L 14.09375 0 L 2.140625 0 L 2.140625 -16.5625 L 5.453125 -16.5625 L 5.453125 -2.765625 Z M 14.09375 -2.765625 "/></g></g></g></g></g></svg>